<svg width="260" height="144" viewBox="0 0 260 144" fill="none" xmlns="http://www.w3.org/2000/svg">
<g clip-path="url(#clip0_8349_135027)">
<rect width="260" height="144" fill="#8FB2FF" fill-opacity="0.2"/>
<path fill-rule="evenodd" clip-rule="evenodd" d="M259.218 90.6784C264.375 85.5203 267.887 78.9488 269.31 71.7949C270.732 64.6409 270.001 57.2257 267.21 50.487C264.418 43.7483 259.691 37.9887 253.626 33.9365C247.561 29.8843 240.431 27.7214 233.137 27.7214C225.843 27.7214 218.713 29.8843 212.648 33.9365C206.583 37.9887 201.856 43.7483 199.064 50.487C196.273 57.2257 195.542 64.6409 196.965 71.7949C198.387 78.9488 201.899 85.5203 207.056 90.6784C208.087 91.7091 209.177 92.6781 210.321 93.5805C211.274 94.3314 212.16 95.1626 212.97 96.0649H227.395V74.6237C224.885 73.3353 222.882 71.2404 221.707 68.6757C220.531 66.111 220.253 63.2256 220.915 60.4835C221.578 57.7413 223.144 55.3017 225.361 53.5568C227.577 51.812 230.317 50.8633 233.138 50.8633C235.959 50.8633 238.698 51.812 240.915 53.5568C243.132 55.3017 244.697 57.7413 245.36 60.4835C246.023 63.2256 245.744 66.111 244.569 68.6757C243.394 71.2404 241.39 73.3353 238.881 74.6237V96.0649H253.309C254.118 95.1619 255.004 94.3307 255.957 93.5805C257.102 92.6806 258.191 91.7114 259.218 90.6784ZM233.138 64.524C232.923 64.5228 232.713 64.4579 232.534 64.3373C232.356 64.2168 232.217 64.046 232.135 63.8467C232.054 63.6473 232.033 63.4283 232.076 63.2171C232.118 63.006 232.223 62.8122 232.376 62.6603C232.528 62.5084 232.723 62.4052 232.934 62.3636C233.145 62.322 233.364 62.344 233.563 62.4267C233.762 62.5094 233.932 62.6492 234.052 62.8283C234.171 63.0075 234.235 63.2181 234.235 63.4336C234.23 63.7224 234.113 63.998 233.908 64.2017C233.704 64.4054 233.427 64.521 233.138 64.524ZM248.208 117.504V109.565C248.208 108.884 248.248 108.218 248.31 107.549H217.97C218.032 108.218 218.069 108.884 218.069 109.565V117.504C218.073 119.638 218.922 121.684 220.432 123.193C221.942 124.702 223.989 125.55 226.123 125.551H240.16C242.294 125.55 244.34 124.701 245.849 123.192C247.358 121.684 248.206 119.638 248.208 117.504ZM233.138 16.2243C242.705 16.2243 252.057 19.0611 260.012 24.3762C267.966 29.6913 274.166 37.2458 277.827 46.0844C281.488 54.9231 282.446 64.6488 280.58 74.0318C278.713 83.4148 274.106 92.0337 267.341 98.7983C265.993 100.145 264.568 101.412 263.073 102.593C261.997 103.404 261.13 104.459 260.543 105.672C259.955 106.884 259.664 108.218 259.693 109.565V117.504C259.689 122.683 257.629 127.648 253.967 131.31C250.305 134.973 245.339 137.032 240.16 137.037H226.123C220.943 137.033 215.977 134.974 212.314 131.312C208.651 127.65 206.591 122.684 206.586 117.504V109.565C206.615 108.218 206.324 106.883 205.735 105.671C205.146 104.458 204.278 103.403 203.201 102.593C201.708 101.41 200.284 100.143 198.936 98.7983C192.17 92.0341 187.562 83.4152 185.695 74.0318C183.828 64.6485 184.785 54.9221 188.446 46.0831C192.108 37.244 198.308 29.6893 206.263 24.3744C214.218 19.0595 223.571 16.2232 233.138 16.2243ZM343.2 206.297C346.273 209.277 350.394 210.928 354.674 210.895C358.953 210.862 363.049 209.147 366.075 206.121C369.102 203.095 370.817 199 370.851 194.72C370.884 190.441 369.233 186.319 366.255 183.246L311.336 128.333C305.004 137.258 297.212 145.05 288.287 151.382L343.2 206.297ZM173.613 132.707C140.796 99.8884 140.796 46.4809 173.613 13.6596C185.386 1.88556 200.386 -6.13292 216.716 -9.38181C233.047 -12.6307 249.973 -10.9641 265.356 -4.59269C280.739 1.77869 293.887 12.5686 303.138 26.4127C312.388 40.2567 317.326 56.5329 317.326 73.1831C317.326 89.8333 312.388 106.11 303.138 119.954C293.887 133.798 280.739 144.588 265.356 150.959C249.973 157.33 233.047 158.997 216.716 155.748C200.386 152.499 185.386 144.481 173.613 132.707Z" fill="#C3D5FF"/>
</g>
<defs>
<clipPath id="clip0_8349_135027">
<rect width="260" height="144" fill="white"/>
</clipPath>
</defs>
</svg>
