<svg width="260" height="144" viewBox="0 0 260 144" fill="none" xmlns="http://www.w3.org/2000/svg">
<g clip-path="url(#clip0_8349_135099)">
<rect width="260" height="144" fill="#2B3484" fill-opacity="0.2"/>
<path d="M272.969 87.75H270.625V38.5312H272.969C273.59 38.5312 274.186 38.2843 274.626 37.8448C275.066 37.4052 275.312 36.8091 275.312 36.1875C275.312 35.5659 275.066 34.9698 274.626 34.5302C274.186 34.0907 273.59 33.8438 272.969 33.8438H270.625V26.8125C270.623 26.1915 270.376 25.5963 269.937 25.1572C269.497 24.718 268.902 24.4705 268.281 24.4688H254.219C253.598 24.4705 253.003 24.718 252.563 25.1572C252.124 25.5963 251.877 26.1915 251.875 26.8125V33.8438H249.531C248.91 33.8438 248.314 34.0907 247.874 34.5302C247.434 34.9698 247.188 35.5659 247.188 36.1875C247.188 36.8091 247.434 37.4052 247.874 37.8448C248.314 38.2843 248.91 38.5312 249.531 38.5312H252.18L231.859 69H223.469L216.156 12.4453C216.085 11.8807 215.81 11.3617 215.383 10.9861C214.955 10.6104 214.405 10.4042 213.836 10.4062H207.344V1.03125C207.344 0.409649 207.097 -0.186493 206.657 -0.626032C206.218 -1.06557 205.622 -1.3125 205 -1.3125C204.378 -1.3125 203.782 -1.06557 203.343 -0.626032C202.903 -0.186493 202.656 0.409649 202.656 1.03125V10.4062H196.164C195.595 10.4042 195.045 10.6104 194.617 10.9861C194.19 11.3617 193.915 11.8807 193.844 12.4453L186.531 69H178.141L157.82 38.5312H160.469C161.09 38.5312 161.686 38.2843 162.126 37.8448C162.566 37.4052 162.812 36.8091 162.812 36.1875C162.812 35.5659 162.566 34.9698 162.126 34.5302C161.686 34.0907 161.09 33.8438 160.469 33.8438H158.125V26.8125C158.123 26.1915 157.876 25.5963 157.437 25.1572C156.997 24.718 156.402 24.4705 155.781 24.4688H141.719C141.098 24.4705 140.503 24.718 140.063 25.1572C139.624 25.5963 139.377 26.1915 139.375 26.8125V33.8438H137.031C136.41 33.8438 135.814 34.0907 135.374 34.5302C134.934 34.9698 134.688 35.5659 134.688 36.1875C134.688 36.8091 134.934 37.4052 135.374 37.8448C135.814 38.2843 136.41 38.5312 137.031 38.5312H139.375V87.75H137.031C136.41 87.7518 135.815 87.9993 135.376 88.4385C134.937 88.8776 134.689 89.4727 134.688 90.0938V104.156C134.689 104.777 134.937 105.372 135.376 105.812C135.815 106.251 136.41 106.498 137.031 106.5H139.375V113.531C139.375 114.153 139.622 114.749 140.061 115.189C140.501 115.628 141.097 115.875 141.719 115.875C142.34 115.875 142.936 115.628 143.376 115.189C143.816 114.749 144.062 114.153 144.062 113.531V106.5H146.406C147.027 106.498 147.622 106.251 148.062 105.812C148.501 105.372 148.748 104.777 148.75 104.156V90.0938C148.748 89.4727 148.501 88.8776 148.062 88.4385C147.622 87.9993 147.027 87.7518 146.406 87.75H144.062V43.9219L160.773 69H153.438C152.816 69 152.22 69.2469 151.78 69.6865C151.341 70.126 151.094 70.7221 151.094 71.3438C151.094 71.9654 151.341 72.5615 151.78 73.001C152.22 73.4406 152.816 73.6875 153.438 73.6875H167.5V99.4688H160.469C159.848 99.4705 159.253 99.718 158.813 100.157C158.374 100.596 158.127 101.191 158.125 101.812V111.188C158.127 111.809 158.374 112.404 158.813 112.843C159.253 113.282 159.848 113.529 160.469 113.531H165.156V120.82L164.734 120.68C161.126 119.256 157.311 118.425 153.438 118.219C145.938 118.219 136.375 122.953 135.977 123.164C135.702 123.301 135.457 123.492 135.256 123.725C135.055 123.957 134.902 124.227 134.806 124.519C134.71 124.811 134.673 125.12 134.697 125.426C134.721 125.732 134.805 126.031 134.945 126.305C135.136 126.694 135.433 127.022 135.802 127.25C136.171 127.479 136.597 127.598 137.031 127.594C137.399 127.598 137.762 127.509 138.086 127.336C138.18 127.312 147.039 122.906 153.438 122.906C156.8 123.127 160.107 123.879 163.234 125.133C163.867 125.344 164.523 125.555 165.156 125.742V130.195L164.734 130.055C161.126 128.631 157.311 127.8 153.438 127.594C145.938 127.594 136.375 132.328 135.977 132.539C135.702 132.676 135.457 132.867 135.256 133.1C135.055 133.332 134.902 133.602 134.806 133.894C134.71 134.186 134.673 134.495 134.697 134.801C134.721 135.107 134.805 135.406 134.945 135.68C135.136 136.069 135.433 136.397 135.802 136.625C136.171 136.854 136.597 136.973 137.031 136.969C137.399 136.973 137.762 136.884 138.086 136.711C138.18 136.688 147.039 132.281 153.438 132.281C156.8 132.502 160.107 133.254 163.234 134.508C163.867 134.719 164.523 134.93 165.156 135.117V136.969C165.158 137.59 165.406 138.185 165.845 138.624C166.284 139.063 166.879 139.311 167.5 139.312H176.875C177.496 139.311 178.091 139.063 178.53 138.624C178.969 138.185 179.217 137.59 179.219 136.969V136.406C181.455 135.895 183.661 135.261 185.828 134.508C188.956 133.254 192.262 132.502 195.625 132.281C196.411 132.28 197.196 132.35 197.969 132.492V136.969C197.971 137.59 198.218 138.185 198.657 138.624C199.096 139.063 199.691 139.311 200.312 139.312H209.688C210.309 139.311 210.904 139.063 211.343 138.624C211.782 138.185 212.029 137.59 212.031 136.969V136.781C212.808 136.893 213.591 136.956 214.375 136.969C218.249 136.762 222.063 135.931 225.672 134.508C227.406 133.922 229.117 133.359 230.781 132.938V136.969C230.783 137.59 231.031 138.185 231.47 138.624C231.909 139.063 232.504 139.311 233.125 139.312H242.5C243.121 139.311 243.716 139.063 244.155 138.624C244.594 138.185 244.842 137.59 244.844 136.969V134.367L245.266 134.508C248.874 135.931 252.689 136.762 256.562 136.969C264.062 136.969 273.625 132.234 274.023 132.023C274.298 131.885 274.543 131.695 274.744 131.462C274.945 131.229 275.098 130.959 275.194 130.667C275.29 130.375 275.328 130.067 275.305 129.76C275.282 129.453 275.199 129.154 275.06 128.88C274.922 128.606 274.73 128.361 274.497 128.161C274.263 127.961 273.993 127.808 273.701 127.713C273.408 127.617 273.1 127.58 272.794 127.604C272.487 127.628 272.188 127.712 271.914 127.852C271.82 127.875 262.961 132.281 256.562 132.281C253.2 132.06 249.893 131.309 246.766 130.055C246.133 129.844 245.477 129.633 244.844 129.445V124.992L245.266 125.133C248.874 126.556 252.689 127.387 256.562 127.594C264.062 127.594 273.625 122.859 274.023 122.648C274.298 122.51 274.543 122.32 274.744 122.087C274.945 121.854 275.098 121.584 275.194 121.292C275.29 121 275.328 120.692 275.305 120.385C275.282 120.078 275.199 119.779 275.06 119.505C274.922 119.231 274.73 118.986 274.497 118.786C274.263 118.586 273.993 118.433 273.701 118.338C273.408 118.242 273.1 118.205 272.794 118.229C272.487 118.253 272.188 118.337 271.914 118.477C271.82 118.5 262.961 122.906 256.562 122.906C253.2 122.685 249.893 121.934 246.766 120.68C246.133 120.469 245.477 120.258 244.844 120.07V113.531H249.531C250.152 113.529 250.747 113.282 251.187 112.843C251.626 112.404 251.873 111.809 251.875 111.188V101.812C251.873 101.191 251.626 100.596 251.187 100.157C250.747 99.718 250.152 99.4705 249.531 99.4688H242.5V73.6875H256.562C257.184 73.6875 257.78 73.4406 258.22 73.001C258.659 72.5615 258.906 71.9654 258.906 71.3438C258.906 70.7221 258.659 70.126 258.22 69.6865C257.78 69.2469 257.184 69 256.562 69H249.227L265.938 43.9219V87.75H263.594C262.973 87.7518 262.378 87.9993 261.938 88.4385C261.499 88.8776 261.252 89.4727 261.25 90.0938V104.156C261.252 104.777 261.499 105.372 261.938 105.812C262.378 106.251 262.973 106.498 263.594 106.5H265.938V113.531C265.938 114.153 266.184 114.749 266.624 115.189C267.064 115.628 267.66 115.875 268.281 115.875C268.903 115.875 269.499 115.628 269.939 115.189C270.378 114.749 270.625 114.153 270.625 113.531V106.5H272.969C273.59 106.498 274.185 106.251 274.624 105.812C275.063 105.372 275.311 104.777 275.312 104.156V90.0938C275.311 89.4727 275.063 88.8776 274.624 88.4385C274.185 87.9993 273.59 87.7518 272.969 87.75ZM216.695 53.1562L218.289 65.5547L208.984 58.7812L216.695 53.1562ZM212.828 50.1797L205 55.875L197.172 50.1797L205 44.1094L212.828 50.1797ZM199.023 33.5156L205 26.6953L210.977 33.5156L205 38.1562L199.023 33.5156ZM215.078 69H194.922L205 61.6641L215.078 69ZM214.563 36.6562L215.852 46.5938L208.82 41.1328L214.563 36.6562ZM213.625 29.4375L208.117 23.1328L212.219 18.4453L213.625 29.4375ZM208.914 15.0938L205 19.5703L201.086 15.0938H208.914ZM197.781 18.4453L201.883 23.1328L196.375 29.4375L197.781 18.4453ZM195.438 36.6562L201.18 41.1328L194.148 46.5938L195.438 36.6562ZM193.305 53.1562L201.016 58.7812L191.711 65.5547L193.305 53.1562ZM237.812 73.6875V80.7188H219.062C218.441 80.7205 217.846 80.968 217.407 81.4072C216.968 81.8464 216.721 82.4415 216.719 83.0625V92.4375C216.721 93.0585 216.968 93.6536 217.407 94.0928C217.846 94.532 218.441 94.7795 219.062 94.7812H237.812V99.4688H172.188V94.7812H190.938C191.559 94.7795 192.154 94.532 192.593 94.0928C193.032 93.6536 193.279 93.0585 193.281 92.4375V83.0625C193.279 82.4415 193.032 81.8464 192.593 81.4072C192.154 80.968 191.559 80.7205 190.938 80.7188H172.188V73.6875H237.812ZM146.102 38.5312H152.172L156.859 45.5625C156.859 45.5625 150.906 45.6094 150.812 45.6094L146.102 38.5312ZM158.594 57.2812L153.906 50.25H160L164.688 57.2812H158.594ZM166.422 69L161.734 61.9688C161.734 61.9688 167.688 61.9219 167.781 61.9219L172.492 69H166.422ZM174.531 132.281C172.948 132.254 171.374 132.034 169.844 131.625V127.031C171.382 127.383 172.953 127.571 174.531 127.594V132.281ZM174.531 122.906C172.948 122.879 171.374 122.659 169.844 122.25V113.531H174.531V122.906ZM197.969 127.781C197.192 127.669 196.409 127.607 195.625 127.594C191.751 127.8 187.937 128.631 184.328 130.055C182.594 130.641 180.883 131.203 179.219 131.625V127.031C181.455 126.52 183.661 125.886 185.828 125.133C188.956 123.879 192.262 123.127 195.625 122.906C196.411 122.905 197.196 122.975 197.969 123.117V127.781ZM197.969 118.406C197.192 118.294 196.409 118.232 195.625 118.219C191.751 118.425 187.937 119.256 184.328 120.68C182.594 121.266 180.883 121.828 179.219 122.25V113.531H197.969V118.406ZM202.656 134.625V133.875C203.148 134.062 203.641 134.25 204.133 134.461C204.273 134.508 204.414 134.578 204.555 134.625H202.656ZM207.344 130.688C206.852 130.5 206.359 130.312 205.867 130.102C204.836 129.68 203.758 129.281 202.656 128.906V124.5C203.148 124.688 203.641 124.875 204.133 125.086C205.164 125.508 206.242 125.906 207.344 126.281V130.688ZM207.344 121.312C206.852 121.125 206.359 120.938 205.867 120.727C204.836 120.305 203.758 119.906 202.656 119.531V113.531H207.344V121.312ZM230.781 128.156C228.545 128.668 226.339 129.302 224.172 130.055C221.044 131.309 217.738 132.06 214.375 132.281C213.589 132.283 212.804 132.212 212.031 132.07V127.406C212.808 127.518 213.591 127.581 214.375 127.594C218.249 127.387 222.063 126.556 225.672 125.133C227.406 124.547 229.117 123.984 230.781 123.562V128.156ZM230.781 118.781C228.545 119.293 226.339 119.927 224.172 120.68C221.044 121.934 217.738 122.685 214.375 122.906C213.589 122.908 212.804 122.837 212.031 122.695V113.531H230.781V118.781ZM240.156 134.625H235.469V132.281C237.052 132.309 238.626 132.529 240.156 132.938V134.625ZM240.156 128.156C238.618 127.805 237.047 127.616 235.469 127.594V122.906C237.052 122.934 238.626 123.154 240.156 123.562V128.156ZM240.156 118.781C238.618 118.43 237.047 118.241 235.469 118.219V113.531H240.156V118.781ZM243.578 69H237.508L242.219 61.9219C242.312 61.9219 248.266 61.9688 248.266 61.9688L243.578 69ZM251.406 57.2812H245.312L250 50.25H256.094L251.406 57.2812ZM259.188 45.6094C259.094 45.6094 253.141 45.5625 253.141 45.5625L257.828 38.5312H263.898L259.188 45.6094Z" fill="#B1B7DD"/>
</g>
<defs>
<clipPath id="clip0_8349_135099">
<rect width="260" height="144" fill="white"/>
</clipPath>
</defs>
</svg>
