<svg width="260" height="144" viewBox="0 0 260 144" fill="none" xmlns="http://www.w3.org/2000/svg">
<g clip-path="url(#clip0_8349_135048)">
<rect width="260" height="144" fill="#5E76F6" fill-opacity="0.2"/>
<path d="M205.904 121.072C188.814 121.072 174.91 107.224 174.91 90.2012C174.91 88.5831 173.599 87.2715 171.98 87.2715C170.362 87.2715 169.051 88.5831 169.051 90.2012C169.051 110.454 185.583 126.932 205.904 126.932C207.522 126.932 208.834 125.62 208.834 124.002C208.834 122.384 207.522 121.072 205.904 121.072Z" fill="#C0CCFF"/>
<path d="M284.018 51.9645C284.018 26.3892 249.859 -3.9884 248.405 -5.26897C247.299 -6.24368 245.64 -6.24368 244.533 -5.26897C243.792 -4.61711 234.576 3.57693 225.705 14.8392C217.272 5.81902 210.857 0.14978 210.566 -0.107153C209.459 -1.08186 207.8 -1.08186 206.693 -0.107153C206.137 0.382398 192.924 12.0745 179.493 28.6641C161.238 51.2136 151.982 71.0051 151.982 87.489C151.982 118.649 177.394 144 208.63 144C239.865 144 265.277 118.649 265.277 87.489C265.277 86.4909 265.242 85.4696 265.172 84.4383C276.426 77.962 284.018 65.831 284.018 51.9645ZM259.418 87.489C259.418 115.418 236.634 138.14 208.63 138.14C180.625 138.14 157.842 115.418 157.842 87.489C157.842 55.1922 199.121 14.9084 208.632 6.0575C211.25 8.48591 216.265 13.2803 222.126 19.5944C214.993 29.5442 208.921 41.1812 208.921 51.9645C208.921 72.6203 225.765 89.425 246.469 89.425C251.017 89.425 255.378 88.614 259.416 87.1299C259.417 87.25 259.418 87.3698 259.418 87.489ZM246.469 83.5656C228.996 83.5656 214.78 69.3894 214.78 51.9645C214.78 32.2791 239.313 7.67234 246.47 0.913843C253.629 7.6697 278.158 32.2589 278.158 51.9645C278.158 69.3891 263.943 83.5656 246.469 83.5656Z" fill="#C0CCFF"/>
</g>
<defs>
<clipPath id="clip0_8349_135048">
<rect width="260" height="144" fill="white"/>
</clipPath>
</defs>
</svg>
