<svg width="260" height="144" viewBox="0 0 260 144" fill="none" xmlns="http://www.w3.org/2000/svg">
<g clip-path="url(#clip0_8349_135072)">
<rect width="260" height="144" fill="#333DCF" fill-opacity="0.2"/>
<path fill-rule="evenodd" clip-rule="evenodd" d="M192.192 92.6892C188.832 93.1052 185.343 93.704 182.105 94.7116C179.617 95.4861 174.984 97.1426 174.984 100.373C174.984 104.275 181.912 106.075 184.751 106.752C187.935 107.512 191.227 107.989 194.483 108.312C198.305 108.692 202.16 108.857 206.004 108.857C209.844 108.857 213.702 108.692 217.524 108.312C220.777 107.989 224.072 107.512 227.252 106.752C230.088 106.075 237.02 104.271 237.02 100.373C237.02 97.1426 232.387 95.4861 229.898 94.7116C226.661 93.7076 223.172 93.1052 219.812 92.6892L217.169 92.363L218.898 90.3371C226.912 80.939 234.259 68.7048 234.259 55.99C234.259 40.4104 221.583 27.7351 206.004 27.7351C190.424 27.7351 177.749 40.4104 177.749 55.99C177.749 68.7048 185.096 80.939 193.11 90.3371L194.838 92.363L192.192 92.6892ZM217.015 141.92H213.003V123.716C213.003 121.859 211.493 120.342 209.632 120.342H202.368C200.51 120.342 198.997 121.859 198.997 123.716V141.92H194.985C193.859 141.92 192.859 142.541 192.364 143.552C191.869 144.559 191.994 145.728 192.679 146.618L203.694 160.871C204.25 161.591 205.089 162 206 162C206.911 162 207.746 161.588 208.302 160.871L219.317 146.618C220.002 145.728 220.131 144.563 219.636 143.555C219.141 142.541 218.141 141.92 217.015 141.92ZM271.765 118.929C271.621 117.818 270.886 116.903 269.825 116.541C268.76 116.179 267.609 116.441 266.813 117.237L263.98 120.073L251.108 107.2C249.795 105.888 247.651 105.888 246.339 107.2L241.2 112.339C239.888 113.651 239.888 115.795 241.2 117.108L254.073 129.98L251.24 132.813C250.441 133.612 250.175 134.756 250.541 135.825C250.903 136.89 251.818 137.625 252.929 137.765L270.796 140.052C270.922 140.07 271.051 140.077 271.176 140.077C271.951 140.077 272.675 139.773 273.227 139.224C273.869 138.582 274.171 137.693 274.056 136.793L271.765 118.929ZM294.867 69.6944L280.614 58.6793C279.725 57.9944 278.559 57.8653 277.552 58.3602C276.541 58.8586 275.92 59.8554 275.92 60.9813V64.9936H257.716C255.859 64.9936 254.342 66.5068 254.342 68.3641V75.6287C254.342 77.4896 255.859 78.9992 257.716 78.9992H275.92V83.008C275.92 84.1375 276.541 85.1343 277.552 85.6327C277.95 85.8299 278.387 85.9303 278.832 85.9303C279.481 85.9303 280.101 85.7116 280.614 85.3136L294.867 74.2984C295.588 73.7426 296 72.9072 296 71.9928C296 71.0892 295.588 70.2538 294.867 69.6944ZM246.339 36.7996C246.973 37.4343 247.827 37.7857 248.723 37.7857C249.62 37.7857 250.473 37.4343 251.108 36.7996L263.977 23.9307L266.813 26.7598C267.612 27.5558 268.76 27.8247 269.828 27.459C270.89 27.0968 271.628 26.1825 271.768 25.0709L274.056 7.20717C274.171 6.30359 273.869 5.41793 273.224 4.77251C272.582 4.13068 271.693 3.82948 270.793 3.94422L252.929 6.23187C251.814 6.3753 250.903 7.11036 250.541 8.1753C250.179 9.24024 250.441 10.3912 251.237 11.1873L254.073 14.0199L241.2 26.8924C239.888 28.2048 239.888 30.349 241.2 31.6614L246.339 36.7996ZM165.661 107.2C164.349 105.884 162.205 105.888 160.889 107.2L148.016 120.073L145.184 117.24C144.384 116.441 143.24 116.179 142.172 116.541C141.11 116.903 140.375 117.818 140.232 118.929L137.944 136.793C137.829 137.696 138.127 138.582 138.773 139.224C139.321 139.773 140.042 140.081 140.82 140.081C140.949 140.081 141.078 140.07 141.207 140.052L159.071 137.765C160.186 137.621 161.093 136.886 161.455 135.825C161.818 134.76 161.556 133.609 160.76 132.813L157.927 129.98L170.792 117.108C172.108 115.792 172.108 113.651 170.792 112.335L165.661 107.2ZM136.08 79.0028H154.284C156.141 79.0028 157.658 77.4896 157.658 75.6323V68.3677C157.658 66.5104 156.141 64.9972 154.284 64.9972H136.08V60.9884C136.08 59.8625 135.459 58.8622 134.445 58.3637C133.437 57.8689 132.268 57.998 131.382 58.6829L117.129 69.6944C116.409 70.2538 116 71.0892 116 72C116 72.9108 116.409 73.7462 117.129 74.3056L131.382 85.3207C131.895 85.7151 132.516 85.9375 133.161 85.9375C133.606 85.9375 134.043 85.8335 134.441 85.6398C135.452 85.145 136.076 84.1446 136.076 83.0187V79.0028H136.08ZM157.931 14.0199L160.763 11.1873C161.563 10.3877 161.825 9.24383 161.459 8.1753C161.097 7.11036 160.186 6.3753 159.075 6.23546L141.207 3.94781C140.304 3.83307 139.422 4.13426 138.78 4.77609C138.138 5.41793 137.837 6.30717 137.951 7.20717L140.239 25.0709C140.382 26.1825 141.114 27.0968 142.179 27.459C143.244 27.8211 144.395 27.5594 145.191 26.7633L148.024 23.9271L160.896 36.7996C161.531 37.4343 162.384 37.7857 163.28 37.7857C164.177 37.7857 165.03 37.4343 165.665 36.7996L170.8 31.6614C172.116 30.3454 172.116 28.2048 170.8 26.8888L157.931 14.0199ZM194.985 2.07968H198.997V20.2841C198.997 22.1414 200.51 23.6582 202.368 23.6582H209.632C211.49 23.6582 213.003 22.1414 213.003 20.2841V2.07968H217.015C218.141 2.07968 219.138 1.45578 219.633 0.448208C220.127 -0.559362 220.006 -1.7247 219.321 -2.61394L208.302 -16.8705C207.746 -17.5876 206.911 -18 206 -18C205.089 -18 204.25 -17.5912 203.691 -16.8705L192.679 -2.61753C191.994 -1.72829 191.865 -0.566534 192.36 0.444622C192.859 1.45578 193.859 2.07968 194.985 2.07968Z" fill="#B9BFF7"/>
<path fill-rule="evenodd" clip-rule="evenodd" d="M206 73.8968C215.868 73.8968 223.9 65.8685 223.9 56.0008C223.9 46.1295 215.871 38.1012 206 38.1012C196.129 38.1012 188.1 46.1295 188.1 56.0008C188.1 65.8685 196.132 73.8968 206 73.8968ZM205.057 98.4048C199.782 93.79 194.766 88.3578 190.686 82.6673C185.164 74.9617 180.614 65.6641 180.614 55.99C180.614 41.9916 192.002 30.6036 206 30.6036C219.998 30.6036 231.386 41.9916 231.386 55.99C231.386 65.6641 226.836 74.9617 221.314 82.6673C217.234 88.3578 212.221 93.7865 206.947 98.4048L206.004 99.2331L205.057 98.4048ZM149.035 20.8865C148.762 20.6139 148.404 20.4633 148.016 20.4633C147.633 20.4633 147.274 20.6175 147.005 20.8865L143.09 24.7948L140.78 6.78407L158.795 9.09682L154.879 13.0124C154.32 13.5717 154.32 14.4789 154.879 15.0382L169.125 29.2805L163.273 35.1323L149.035 20.8865ZM194.892 -0.788841L206 -15.1602L217.105 -0.788841H211.569C210.78 -0.788841 210.134 -0.143423 210.134 0.645421V20.7896H201.866V0.645421C201.866 -0.143423 201.22 -0.788841 200.431 -0.788841H194.892ZM154.79 67.8657V76.1343H134.645C133.857 76.1343 133.211 76.7797 133.211 77.5685V83.1048L118.84 72L133.211 60.8916V66.4315C133.211 67.2203 133.857 67.8657 134.645 67.8657H154.79ZM257.114 15.0347C257.676 14.4717 257.673 13.5681 257.114 13.0052L253.209 9.08965L271.22 6.78048L268.907 24.7912L264.991 20.8829C264.428 20.3235 263.525 20.3199 262.962 20.8829L248.72 35.1251L242.871 29.2733L257.114 15.0347ZM277.355 67.8657C278.143 67.8657 278.789 67.2203 278.789 66.4315V60.8916L293.16 72L278.789 83.1048V77.5685C278.789 76.7797 278.143 76.1343 277.355 76.1343H257.21V67.8657H277.355ZM262.965 123.114C263.528 123.676 264.432 123.673 264.995 123.114L268.91 119.205L271.223 137.216L253.212 134.907L257.117 130.991C257.676 130.428 257.68 129.525 257.117 128.962L242.878 114.72L248.727 108.868L262.965 123.114ZM211.569 144.789H217.105L206 159.16L194.892 144.789H200.431C201.22 144.789 201.866 144.143 201.866 143.355V123.21H210.134V143.355C210.134 144.143 210.78 144.789 211.569 144.789ZM154.883 130.991L158.798 134.907L140.784 137.216L143.093 119.205L147.009 123.114C147.572 123.673 148.475 123.676 149.038 123.114L163.277 108.871L169.129 114.723L154.883 128.965C154.324 129.525 154.324 130.432 154.883 130.991Z" fill="#B9BFF7"/>
</g>
<defs>
<clipPath id="clip0_8349_135072">
<rect width="260" height="144" fill="white"/>
</clipPath>
</defs>
</svg>
